<svg xmlns="http://www.w3.org/2000/svg"
  xmlns:xlink="http://www.w3.org/1999/xlink" version="1.1" x="0px" y="0px" viewBox="0 0 100 100" style="enable-background:new 0 0 100 100;" xml:space="preserve">
  <g>
    <path d="M74.17749,5.01824c-3.86006-1.10295-7.92419,1.20995-8.89001,5.21997l-7.21002,30.37L48.75745,6.87822   c-1.00605-3.65478-4.85565-5.74439-8.51996-4.53003c-3.17004,1.07001-5.04999,4.34003-4.39001,7.62006l6,29.5   c-0.67275-0.67276-3.01949-1.46413-5.22003-0.99005c-3.12994,0.67004-5.31,3.46002-5.35998,6.54004   c-0.03998-0.02002-0.07996-0.04999-0.12-0.08002c-1.52997-1.01001-3.37-1.35999-5.15997-0.96997   c-3.62,0.76996-5.97003,4.33997-5.26001,7.96997l1.90997,9.69v9.35998c0,14.89001,12.11999,27.01001,27.01001,27.01001   c14.84003,0,26.91998-12.02997,27-26.84003c0.01001-0.06,0.01001-0.10999,0.01001-0.16998c0,0,0-0.01001,0-0.01996   c0-0.68005-0.08002-1.37006-0.25-2.03003l-2.66998-10.75c-0.79004-10.35999,1.42999-22.35999,3.57996-33.96997   c0.71002-3.83002,1.38-7.45001,1.94-10.97003C79.9975,9.64824,77.76746,6.02825,74.17749,5.01824z M37.0575,40.42821   c2.79831-0.57624,5.23487,1.28622,5.71997,3.77002l1.59003,8.03998c-0.91003,1.01001-1.52002,2.27002-1.73004,3.64001   c-0.4259,2.7639,0.77539,5.70052,3.87,7.41998c0.18005,2.35003-1.41998,4.55999-3.77997,5.05999   c-2.33122,0.5181-4.76951-0.81856-5.53003-3.09998c-0.01996-0.19-0.04999-0.39001-0.08997-0.58002   c-1.68426-8.48487-2.79892-14.34454-3.75-18.61999C32.84747,43.49822,34.50745,40.9782,37.0575,40.42821z M26.39746,45.9182   c2.37596-0.48918,4.65031,0.82808,5.46002,2.91003l3.19,16.14996c0.04999,0.23004,0.09998,0.46002,0.17999,0.69   c0.14996,2.34003-1.44,4.51001-3.78998,5.02002c-2.56972,0.54635-5.16697-1.06856-5.72003-3.77002   C21.6331,46.19957,22.9636,52.94876,22.6875,51.54821c-0.01001-0.03998-0.01001-0.07001-0.02002-0.10999   C22.23749,48.9182,23.88745,46.45824,26.39746,45.9182z M49.64746,95.99821c-13.78998,0-25.01001-11.21997-25.01001-25.01001   v-1.45001c1.48281,2.47141,4.46781,3.73062,7.22003,3.10004c2.33996-0.5,4.14996-2.17999,4.94-4.28003   c1.5286,1.61604,3.85318,2.4715,6.35999,1.96002c2.95001-0.64001,5.06-3.15002,5.33002-6.03003   c1.78998,0.82001,3.88,1.61005,6.07001,2.03003c-3.27002,2.88-9.42004,9.77002-8.02002,19.83002   c0.07001,0.50995,0.5,0.87,0.98999,0.87c0.03998,0,0.09003-0.01001,0.13-0.01001c0.54999-0.08002,0.92999-0.58002,0.85999-1.13   c-1.5-10.72003,6.82001-17.72003,8.70001-19.15997c0.02002,0.01996,0.03998,0.03998,0.06,0.06   c0.04999,0.04999,0.09998,0.14996,0.08002,0.26996c-0.34003,2.34003-0.52002,6.62,2.04999,8.98999   c0.19,0.17004,0.44,0.26001,0.67999,0.26001c0.27002,0,0.53998-0.10999,0.72998-0.32001c0.38-0.40997,0.35004-1.03998-0.06-1.41998   c-1.88995-1.73999-1.69995-5.27002-1.41998-7.21997c0.09003-0.66003-0.08997-1.31-0.51001-1.83002   c-0.42999-0.52002-1.06-0.84003-1.75-0.88h-0.04999c-3.15002-0.19-6.31-1.44-8.70001-2.64001   c-1.01704-0.52165-1.68382-0.8463-2.33997-1.53998c-3.68063-3.81688,0.28784-9.97743,5.25-8.29999l20.65997,6.96997v0.02002   l2.76001,11.92999C74.61749,84.81822,63.40747,95.99821,49.64746,95.99821z M77.28748,12.89824   c-0.56,3.52997-1.22998,7.13995-1.94,10.95996c-2.07001,11.21002-4.21002,22.79004-3.69,33.07001l-19.78003-6.66998   c-1.91998-0.65002-4.00995-0.44-5.75995,0.54999l-0.40002-2.06c0.02002-0.09998,0.01001-0.21002-0.01001-0.32001L37.8075,9.56822   c-0.46002-2.28998,0.85999-4.58002,3.06995-5.32001c2.50408-0.84146,5.24014,0.57077,5.95001,3.15997l10.35004,37.48004   c0.12,0.44,0.51996,0.72998,0.96997,0.72998c0,0,0.01001,0,0.02002,0c0.45001,0,0.84998-0.32001,0.95001-0.76001l8.12-34.15997   c0.64481-2.76054,3.49519-4.56572,6.39996-3.76001C76.21747,7.6682,77.82745,10.25823,77.28748,12.89824z"/>
  </g>
</svg>